<?xml version="1.0" standalone="no"?>
<!DOCTYPE svg PUBLIC "-//W3C//DTD SVG 20010904//EN" "http://www.w3.org/TR/2001/REC-SVG-20010904/DTD/svg10.dtd">
<svg width="100.00000149011612mm" height="100.00000149011612mm"  viewBox="0 0 100.00000149011612 100.00000149011612" xmlns="http://www.w3.org/2000/svg">
    <title>Bezier Curve : VibrationPad</title>
    <desc>This is an exported Bezier xml_path from Blender, using the ExportScript by maybites.ch and Craxic</desc>
<path style="fill:none;stroke:#000000;stroke-width:1px;stroke-linecap:butt;stroke-linejoin:miter;stroke-opacity:1" d="M0.05000000074505806,100.05000149086118 C0.05000000074505806,66.71666641905904 0.05000000074505806,33.3833350725472 0.05000000074505806,0.05000000074505806 C33.3833350725472,0.05000000074505806 66.71666641905904,0.05000000074505806 100.05000149086118,0.05000000074505806 C100.05000149086118,33.3833350725472 100.05000149086118,66.71666641905904 100.05000149086118,100.05000149086118 C66.71666641905904,100.05000149086118 33.3833350725472,100.05000149086118 0.05000000074505806,100.05000149086118 Z "/>
<path style="fill:none;stroke:#000000;stroke-width:1px;stroke-linecap:butt;stroke-linejoin:miter;stroke-opacity:1" d="M44.55000263825059,78.05308428779244 C44.550001706928015,78.88127033784986 43.87819263339043,79.55307987704873 43.0500070489943,79.55307987704873 C42.22181913629174,79.55307987704873 41.55000773444772,78.8812684752047 41.55000773444772,78.05308056250215 C41.55000773444772,77.22489451244473 42.22181820496917,76.55308124795556 43.05000518634915,76.55308124795556 C43.878193099051714,76.55308124795556 44.550003569573164,77.22489637508988 44.55000263825059,78.05308428779244 Z "/>
<path style="fill:none;stroke:#000000;stroke-width:1px;stroke-linecap:butt;stroke-linejoin:miter;stroke-opacity:1" d="M58.55000400170684,78.05308056250215 C58.55000493302941,78.8812684752047 57.87819353118539,79.55308360233903 57.05000561848283,79.55308360233903 C56.22181770578027,79.55308360233903 55.550007700920105,78.8812684752047 55.55000816658139,78.05308056250215 C55.55000863224268,77.22489264979959 56.22181863710284,76.55308124795556 57.05000561848283,76.55308124795556 C57.878192599862814,76.55308124795556 58.550003070384264,77.22489264979959 58.55000400170684,78.05308056250215 Z "/>
<path style="fill:none;stroke:#000000;stroke-width:1px;stroke-linecap:butt;stroke-linejoin:miter;stroke-opacity:1" d="M41.550001215189695,22.04691720381379 C41.550001215189695,21.21872929111123 42.221811685711145,20.546914163976908 43.049999598413706,20.546914163976908 C43.87818844243884,20.546914163976908 44.54999891296029,21.21873115375638 44.54999705031514,22.04692092910409 C44.54999518766999,22.8751069791615 43.87818471714854,23.546916518360376 43.04999866709113,23.546916518360376 C42.221811685711145,23.546916518360376 41.550001215189695,22.875103253871202 41.550001215189695,22.04691720381379 Z "/>
<path style="fill:none;stroke:#000000;stroke-width:1px;stroke-linecap:butt;stroke-linejoin:miter;stroke-opacity:1" d="M55.550002578645945,22.04691720381379 C55.550004441291094,21.21873301640153 56.22181398048997,20.546925339847803 57.04999816790223,20.546925339847803 C57.87818608060479,20.546925339847803 58.549997482448816,21.218736741691828 58.549997482448816,22.046924654394388 C58.549997482448816,22.8751107044518 57.878187011927366,23.546925831586123 57.05000003054738,23.546923968940973 C56.221811186522245,23.546922106295824 55.550000716000795,22.8751069791615 55.550002578645945,22.04691720381379 Z "/>
</svg>